HIERARCHY
ROOT root
{
	OFFSET	0	13.1	24.9
	CHANNELS 6  Xposition Yposition Zposition Xrotation Yrotation Zrotation
	JOINT spine_1
	{
		OFFSET	0	9.99999	0
		CHANNELS 3  Xrotation Yrotation Zrotation
		JOINT spine_2
		{
			OFFSET	0	112	-10
			CHANNELS 3  Xrotation Yrotation Zrotation
			JOINT spine_3
			{
				OFFSET	0	206.5	19.3
				CHANNELS 3  Xrotation Yrotation Zrotation
				JOINT spine_4
				{
					OFFSET	0	110.4	14.6
					CHANNELS 3  Xrotation Yrotation Zrotation
					JOINT neck_1
					{
						OFFSET	0	71.8	-50.3
						CHANNELS 3  Xrotation Yrotation Zrotation
						JOINT neck_2
						{
							OFFSET	0	86.2	-25.8
							CHANNELS 3  Xrotation Yrotation Zrotation
							JOINT head_ee
							{
								OFFSET	0	179.8	-8.7
								CHANNELS 3  Xrotation Yrotation Zrotation
								End Site
								{
									OFFSET	1	0	0
								}
							}
						}
					}
					JOINT left_clavicle
					{
						OFFSET	-43.2	22.4	-70.8
						CHANNELS 3  Xrotation Yrotation Zrotation
						JOINT left_shoulder
						{
							OFFSET	-93.9	-5.79999	48.7
							CHANNELS 3  Xrotation Yrotation Zrotation
							JOINT left_elbow
							{
								OFFSET	-291.4	-30.8	15.2
								CHANNELS 3  Xrotation Yrotation Zrotation
								JOINT left_lowarm_twist
								{
									OFFSET	-110.7	-3.89999	13.6
									CHANNELS 3  Xrotation Yrotation Zrotation
									JOINT left_hand
									{
										OFFSET	-110.7	-3.89999	13.6
										CHANNELS 3  Xrotation Yrotation Zrotation
										JOINT left_ee
										{
											OFFSET	-80.8	-5.10001	12.1
											CHANNELS 3  Xrotation Yrotation Zrotation
											End Site
											{
												OFFSET	1	0	0
											}
										}
									}
								}
							}
						}
					}
					JOINT right_clavicle
					{
						OFFSET	43.2	22.4	-70.8
						CHANNELS 3  Xrotation Yrotation Zrotation
						JOINT right_shoulder
						{
							OFFSET	93.9	-5.79999	48.7
							CHANNELS 3  Xrotation Yrotation Zrotation
							JOINT right_elbow
							{
								OFFSET	291.4	-30.8	15.2
								CHANNELS 3  Xrotation Yrotation Zrotation
								JOINT right_lowarm_twist
								{
									OFFSET	110.7	-3.89999	13.6
									CHANNELS 3  Xrotation Yrotation Zrotation
									JOINT right_hand
									{
										OFFSET	110.7	-3.89999	13.6
										CHANNELS 3  Xrotation Yrotation Zrotation
										JOINT right_ee
										{
											OFFSET	80.8	-5.10001	12.1
											CHANNELS 3  Xrotation Yrotation Zrotation
											End Site
											{
												OFFSET	1	0	0
											}
										}
									}
								}
							}
						}
					}
				}
			}
		}
	}
	JOINT left_hip
	{
		OFFSET	-82.8	-127.5	0.300001
		CHANNELS 3  Xrotation Yrotation Zrotation
		JOINT left_knee
		{
			OFFSET	-28.2	-396.7	2.2
			CHANNELS 3  Xrotation Yrotation Zrotation
			JOINT left_ankle
			{
				OFFSET	-11.7	-411.3	35.4
				CHANNELS 3  Xrotation Yrotation Zrotation
				JOINT left_toes
				{
					OFFSET	0	-60	-88.6
					CHANNELS 3  Xrotation Yrotation Zrotation
					JOINT left_foot_ee
					{
						OFFSET	-22.5	-16.5	-42.2
						CHANNELS 3  Xrotation Yrotation Zrotation
						End Site
						{
							OFFSET	1	0	0
						}
					}
				}
			}
		}
	}
	JOINT right_hip
	{
		OFFSET	82.8	-127.5	0.300001
		CHANNELS 3  Xrotation Yrotation Zrotation
		JOINT right_knee
		{
			OFFSET	28.2	-396.7	2.2
			CHANNELS 3  Xrotation Yrotation Zrotation
			JOINT right_ankle
			{
				OFFSET	11.7	-411.3	35.4
				CHANNELS 3  Xrotation Yrotation Zrotation
				JOINT right_toes
				{
					OFFSET	0	-60	-88.6
					CHANNELS 3  Xrotation Yrotation Zrotation
					JOINT right_foot_ee
					{
						OFFSET	22.5	-16.5	-42.2
						CHANNELS 3  Xrotation Yrotation Zrotation
						End Site
						{
							OFFSET	1	0	0
						}
					}
				}
			}
		}
	}
}
MOTION
Frames: 7
Frame Time: 0.02
3177.02 653.055 -1669.29 -7.18031019144 11.4103355167 9.04710218492 2.5512 -0.364998 -0.985101 2.55169 -0.301577 -1.00633 2.55694 -0.130002 -1.04247 2.55555 -0.293001 -1.00886 -2.04765 6.362 -3.44221 -1.88205 14.2135 -2.79511 -0.0 0.0 -0.0 2.96266 4.93041 6.02087 -31.3819 -17.7129 72.0906 0.603316 -16.6397 0.0882285 -12.6602 -0.613968 1.49447 5.24503 -15.0256 30.034 -0.0 0.0 -0.0 11.3495 26.794 -21.8119 -4.42916 41.9203 -50.6464 0.561632 15.5476 -0.0766729 0.479863 -0.0166603 0.0590209 -1.6072 25.8143 21.7041 0.0 0.0 0.0 18.945 -63.7202 -14.2805 -7.08839 0.226287 1.06363 -18.8737 29.7727 3.03914 23.9711 -0.0 -0.0 -0.0 0.0 -0.0 7.33324 27.4133 -15.6056 -22.3873 -0.259646 -3.40388 35.3459 -8.57701 4.43811 19.6159 -0.0 -0.0 0.0 0.0 0.0 
3177.02 653.055 -1669.29 -7.18497339923 11.5921915857 9.07048957899 2.5512 -0.364998 -0.985101 2.55169 -0.301577 -1.00633 2.55694 -0.130002 -1.04247 2.55555 -0.293001 -1.00886 -2.04765 6.362 -3.44221 -1.88205 14.2135 -2.79511 -0.0 0.0 -0.0 2.96266 4.93041 6.02087 -31.3819 -17.7129 72.0906 0.603316 -16.6397 0.0882285 -12.6602 -0.613968 1.49447 5.24503 -15.0256 30.034 -0.0 0.0 -0.0 11.3495 26.794 -21.8119 -4.42916 41.9203 -50.6464 0.561632 15.5476 -0.0766729 0.479863 -0.0166603 0.0590209 -1.6072 25.8143 21.7041 0.0 0.0 0.0 18.945 -63.7202 -14.2805 -7.08839 0.226287 1.06363 -18.8737 29.7727 3.03914 23.9711 -0.0 -0.0 -0.0 0.0 -0.0 7.33324 27.4133 -15.6056 -22.3873 -0.259646 -3.40388 35.3459 -8.57701 4.43811 19.6159 -0.0 -0.0 0.0 0.0 0.0 
3167.28172616 664.875 -1696.72203278 -7.59939926145 12.7815166174 9.36730906638 2.38755 -0.458571 -1.23169 2.38832 -0.379272 -1.25837 2.39662 -0.161068 -1.30437 2.39443 -0.365031 -1.26258 -0.666564 6.924 -2.89374 -0.471968 14.7347 -2.31903 -0.0 0.0 -0.0 2.54591 4.56614 5.23025 -29.1337 -19.0712 72.1803 0.683387 -18.7025 0.112538 -12.9684 -0.632979 1.52903 5.37044 -15.6163 30.6499 -0.0 0.0 -0.0 11.3413 26.3969 -21.8387 -5.93675 40.7486 -51.661 0.5282 14.6632 -0.0679605 0.530527 -0.0183904 0.0652603 -1.68313 25.4678 22.0987 0.0 0.0 0.0 16.3708 -65.4444 -16.1528 -5.85476 0.196399 0.87668 -18.734 29.2791 3.00656 25.0728 -0.0 -0.0 -0.0 0.0 -0.0 6.87308 28.2804 -15.8849 -22.0894 -0.264967 -3.35847 35.1736 -9.17336 4.42402 19.4704 -0.0 -0.0 0.0 0.0 0.0 
3167.2008323 664.875 -1696.69318131 -7.60450689142 12.9490781946 9.39024821853 2.38755 -0.458571 -1.23169 2.38832 -0.379272 -1.25837 2.39662 -0.161068 -1.30437 2.39443 -0.365031 -1.26258 -0.666564 6.924 -2.89374 -0.471968 14.7347 -2.31903 -0.0 0.0 -0.0 2.54591 4.56614 5.23025 -29.1337 -19.0712 72.1803 0.683387 -18.7025 0.112538 -12.9684 -0.632979 1.52903 5.37044 -15.6163 30.6499 -0.0 0.0 -0.0 11.3413 26.3969 -21.8387 -5.93675 40.7486 -51.661 0.5282 14.6632 -0.0679605 0.530527 -0.0183904 0.0652603 -1.68313 25.4678 22.0987 0.0 0.0 0.0 16.3708 -65.4444 -16.1528 -5.85476 0.196399 0.87668 -18.734 29.2791 3.00656 25.0728 -0.0 -0.0 -0.0 0.0 -0.0 6.87308 28.2804 -15.8849 -22.0894 -0.264967 -3.35847 35.1736 -9.17336 4.42402 19.4704 -0.0 -0.0 0.0 0.0 0.0 
3160.0683377 671.323 -1716.55927168 -7.39826809964 13.6890533729 9.29259459279 2.2759 -0.448311 -0.981213 2.27635 -0.384969 -1.00775 2.28315 -0.206954 -1.05873 2.28178 -0.371555 -1.01277 0.567961 7.62708 -1.88452 0.77747 15.0927 -1.30866 -0.0 0.0 -0.0 3.94167 3.28808 7.7578 -26.3472 -18.9835 71.495 0.582286 -16.0902 0.0823031 -12.9646 -0.632743 1.5286 5.23757 -15.6306 29.6262 -0.0 0.0 -0.0 11.3734 25.4519 -22.0156 -7.33873 39.7599 -52.7774 0.503749 14.0118 -0.0619054 0.591883 -0.0204781 0.0728185 -1.57394 26.04 21.5594 0.0 0.0 0.0 14.709 -66.914 -16.4931 -5.86241 0.196597 0.877838 -18.6885 29.5451 3.00446 26.5898 -0.0 -0.0 -0.0 0.0 -0.0 8.24521 29.0819 -16.9434 -23.3616 -0.240597 -3.55218 36.2644 -10.2047 4.53523 19.3632 -0.0 -0.0 0.0 0.0 0.0 
3132.58664181 676.645 -1757.12685547 -5.66051813286 14.3694567017 8.96138299511 1.90984 -0.40112 -0.689405 1.91003 -0.35644 -0.71353 1.91453 -0.224233 -0.765435 1.91388 -0.342302 -0.720419 1.52792 8.01026 -0.313072 1.71296 14.3872 0.339119 -0.0 0.0 -0.0 4.98196 2.02997 9.68695 -23.7488 -19.3498 68.7366 0.460599 -12.8532 0.0518812 -13.6825 -0.677739 1.6087 5.15309 -16.6117 28.4167 -0.0 0.0 -0.0 11.1627 23.3314 -21.7497 -11.958 37.5016 -53.4639 0.371688 10.4329 -0.0339339 0.906508 -0.0310569 0.11161 -1.09636 26.0888 18.3289 0.0 0.0 0.0 14.6139 -67.7014 -10.4455 -8.26431 0.25102 1.24238 -18.4502 30.1097 2.9771 30.1864 -0.0 -0.0 -0.0 0.0 -0.0 11.7617 29.2447 -20.0002 -32.1155 0.04276 -4.86446 40.9435 -11.1871 4.96862 20.2521 -0.0 -0.0 0.0 0.0 0.0 
3133.1070246 676.645 -1757.38816735 -5.6520645675 14.0321676262 8.92692396348 1.90984 -0.40112 -0.689405 1.91003 -0.35644 -0.71353 1.91453 -0.224233 -0.765435 1.91388 -0.342302 -0.720419 1.52792 8.01026 -0.313072 1.71296 14.3872 0.339119 -0.0 0.0 -0.0 4.98196 2.02997 9.68695 -23.7488 -19.3498 68.7366 0.460599 -12.8532 0.0518812 -13.6825 -0.677739 1.6087 5.15309 -16.6117 28.4167 -0.0 0.0 -0.0 11.1627 23.3314 -21.7497 -11.958 37.5016 -53.4639 0.371688 10.4329 -0.0339339 0.906508 -0.0310569 0.11161 -1.09636 26.0888 18.3289 0.0 0.0 0.0 14.6139 -67.7014 -10.4455 -8.26431 0.25102 1.24238 -18.4502 30.1097 2.9771 30.1864 -0.0 -0.0 -0.0 0.0 -0.0 11.7617 29.2447 -20.0002 -32.1155 0.04276 -4.86446 40.9435 -11.1871 4.96862 20.2521 -0.0 -0.0 0.0 0.0 0.0 
